<?xml version="1.0" encoding="utf-8"?>
<svg x="0pt" y="0pt" width="80pt" height="160pt" viewBox="0 0 80 160" xmlns="http://www.w3.org/2000/svg" xmlns:xlink="http://www.w3.org/1999/xlink">
  <g id="Layer 3">
    <path id="Path" style="fill:none;opacity:1;stroke:#9bb3b4;stroke-linecap:round;stroke-linejoin:round;stroke-miterlimit:10;stroke-opacity:1;stroke-width:7;" d="M35,75 C35,75,35,75,35,75 C20.4636,72.0927,10,59.3292,10,44.5049 C10,44.5049,10,10,10,10 C10,10,70,10,70,10 C70,10,70,44.5049,70,44.5049 C70,59.3292,59.5364,72.0927,45,75 C45,75,45,75,45,75 C45,75,45,85,45,85 C45,85,45,85,45,85 C59.5364,87.9073,70,100.671,70,115.495 C70,115.495,70,150,70,150 C70,150,10,150,10,150 C10,150,10,115.495,10,115.495 C10,100.671,20.4636,87.9073,35,85 C35,85,35,85,35,85 C35,85,35,75,35,75 z"/>
    <path id="Path 1" style="fill:#ffffff;fill-opacity:1;fill-rule:evenodd;opacity:1;stroke:none;" d="M0,0 C0,0,80,0,80,0 C80,0,80,160,80,160 C80,160,0,160,0,160 C0,160,0,0,0,0 z M35,75 C20.4636,72.0927,10,59.3292,10,44.5049 C10,44.5049,10,10,10,10 C10,10,70,10,70,10 C70,10,70,44.5049,70,44.5049 C70,59.3292,59.5364,72.0927,45,75 C45,75,45,85,45,85 C59.5364,87.9073,70,100.671,70,115.495 C70,115.495,70,150,70,150 C70,150,10,150,10,150 C10,150,10,115.495,10,115.495 C10,100.671,20.4636,87.9073,35,85 C35,85,35,75,35,75 z"/>
  </g>
</svg>
